<?xml version="1.0" encoding="utf-8"?>
<!-- Generator: Adobe Illustrator 26.3.1, SVG Export Plug-In . SVG Version: 6.00 Build 0)  -->
<svg version="1.1" id="Layer_1" xmlns="http://www.w3.org/2000/svg" xmlns:xlink="http://www.w3.org/1999/xlink" x="0px" y="0px"
	 viewBox="0 0 276.65 167.34" style="enable-background:new 0 0 276.65 167.34;" xml:space="preserve">
<style type="text/css">
	.st0{fill:#E0AC3B;}
	.st1{fill:#FFFFFF;}
	.st2{fill:#231F20;}
</style>
<g>
	<g>
		<g>
			<g>
				<path class="st0" d="M159.82,100.03c0,0-1.06,2.36-3.54,0c0,0-35.17-27.61-33.87-60.19c0,0-1.42-14.16,11.21-27.26
					c0,0,10.62-10.03,24.31-9.44v7.43c0,0-12.75-1.18-22.42,10.62s-4.37,27.02-4.37,27.02s5.9,16.4,23.6,18.41c0,0,2.95,0.35,4.6,0
					L159.82,100.03z"/>
				<path class="st0" d="M156.53,100.03c0,0,1.06,2.36,3.54,0c0,0,35.17-27.61,33.87-60.19c0,0,1.42-14.16-11.21-27.26
					c0,0-10.62-10.03-24.31-9.44v7.43c0,0,12.75-1.18,22.42,10.62c9.68,11.8,4.37,27.02,4.37,27.02s-5.9,16.4-23.6,18.41
					c0,0-2.95,0.35-4.6,0L156.53,100.03z"/>
			</g>
			<path class="st0" d="M156.95,9.99l-1.42-6.84c0,0,3.38-0.24,7.47,0.2l-1.3,7.36c0,0-4.25-0.28-5.98-0.12L156.95,9.99z"/>
		</g>
	</g>
	<g>
		<path class="st0" d="M134.02,47.69V47.2l0.94-0.94h46.98l1.12,1.12v0.38h0.26v1.63h-49.7v-1.66
			C133.62,47.72,134.04,47.69,134.02,47.69z"/>
		<path class="st0" d="M158.83,24.35V18.4h-0.58v0.4c0,0-1.03-0.36-1.7,0.13c-0.67,0.49-1.43,0.45-1.93,0.04v2.46
			c0,0,0.72,0.54,1.48,0.22c0.76-0.31,1.75-0.67,2.06-0.31v3l-9.32,4.3h19.3L158.83,24.35z"/>
		<rect x="149.74" y="29.55" class="st0" width="17.6" height="15.9"/>
		<g>
			<g>
				<path class="st1" d="M152.85,34.83L152.85,34.83c-0.48,0-0.87-0.39-0.87-0.87v-1.61c0-0.48,0.39-0.87,0.87-0.87l0,0
					c0.48,0,0.87,0.39,0.87,0.87v1.61C153.72,34.44,153.33,34.83,152.85,34.83z"/>
				<path class="st1" d="M156.61,34.83L156.61,34.83c-0.48,0-0.87-0.39-0.87-0.87v-1.61c0-0.48,0.39-0.87,0.87-0.87h0
					c0.48,0,0.87,0.39,0.87,0.87v1.61C157.48,34.44,157.09,34.83,156.61,34.83z"/>
				<path class="st1" d="M164.4,34.83L164.4,34.83c-0.48,0-0.87-0.39-0.87-0.87v-1.61c0-0.48,0.39-0.87,0.87-0.87h0
					c0.48,0,0.87,0.39,0.87,0.87v1.61C165.28,34.44,164.89,34.83,164.4,34.83z"/>
				<path class="st1" d="M160.58,34.83L160.58,34.83c-0.48,0-0.87-0.39-0.87-0.87v-1.61c0-0.48,0.39-0.87,0.87-0.87l0,0
					c0.48,0,0.87,0.39,0.87,0.87v1.61C161.45,34.44,161.06,34.83,160.58,34.83z"/>
			</g>
			<path class="st1" d="M153.12,43.77L153.12,43.77c-0.48,0-0.87-0.39-0.87-0.87V39.4c0-0.48,0.39-0.87,0.87-0.87l0,0
				c0.48,0,0.87,0.39,0.87,0.87v3.49C153.99,43.38,153.6,43.77,153.12,43.77z"/>
			<path class="st1" d="M164.67,43.77L164.67,43.77c-0.48,0-0.87-0.39-0.87-0.87V39.4c0-0.48,0.39-0.87,0.87-0.87l0,0
				c0.48,0,0.87,0.39,0.87,0.87v3.49C165.55,43.38,165.15,43.77,164.67,43.77z"/>
			<circle class="st1" cx="158.53" cy="26.68" r="1.5"/>
			<g>
				<circle class="st1" cx="158.5" cy="38.88" r="2.75"/>
				<rect x="155.76" y="38.62" class="st1" width="5.47" height="5.01"/>
			</g>
		</g>
		<rect x="136.97" y="34.61" class="st0" width="11.78" height="10.84"/>
		<g>
			<g>
				<path class="st1" d="M139.48,39.36L139.48,39.36c-0.48,0-0.87-0.39-0.87-0.87v-1.61c0-0.48,0.39-0.87,0.87-0.87h0
					c0.48,0,0.87,0.39,0.87,0.87v1.61C140.35,38.97,139.96,39.36,139.48,39.36z"/>
				<path class="st1" d="M142.91,39.36L142.91,39.36c-0.48,0-0.87-0.39-0.87-0.87v-1.61c0-0.48,0.39-0.87,0.87-0.87l0,0
					c0.48,0,0.87,0.39,0.87,0.87v1.61C143.78,38.97,143.39,39.36,142.91,39.36z"/>
				<path class="st1" d="M146.13,39.36L146.13,39.36c-0.48,0-0.87-0.39-0.87-0.87v-1.61c0-0.48,0.39-0.87,0.87-0.87l0,0
					c0.48,0,0.87,0.39,0.87,0.87v1.61C147,38.97,146.61,39.36,146.13,39.36z"/>
			</g>
			<g>
				<path class="st1" d="M139.48,43.93L139.48,43.93c-0.48,0-0.87-0.39-0.87-0.87v-1.61c0-0.48,0.39-0.87,0.87-0.87h0
					c0.48,0,0.87,0.39,0.87,0.87v1.61C140.35,43.53,139.96,43.93,139.48,43.93z"/>
				<path class="st1" d="M142.91,43.93L142.91,43.93c-0.48,0-0.87-0.39-0.87-0.87v-1.61c0-0.48,0.39-0.87,0.87-0.87l0,0
					c0.48,0,0.87,0.39,0.87,0.87v1.61C143.78,43.53,143.39,43.93,142.91,43.93z"/>
				<path class="st1" d="M146.13,43.93L146.13,43.93c-0.48,0-0.87-0.39-0.87-0.87v-1.61c0-0.48,0.39-0.87,0.87-0.87l0,0
					c0.48,0,0.87,0.39,0.87,0.87v1.61C147,43.53,146.61,43.93,146.13,43.93z"/>
			</g>
		</g>
		<rect x="168.3" y="34.61" class="st0" width="11.78" height="10.84"/>
		<g>
			<g>
				<path class="st1" d="M170.81,39.36L170.81,39.36c-0.48,0-0.87-0.39-0.87-0.87v-1.61c0-0.48,0.39-0.87,0.87-0.87l0,0
					c0.48,0,0.87,0.39,0.87,0.87v1.61C171.68,38.97,171.29,39.36,170.81,39.36z"/>
				<path class="st1" d="M174.24,39.36L174.24,39.36c-0.48,0-0.87-0.39-0.87-0.87v-1.61c0-0.48,0.39-0.87,0.87-0.87h0
					c0.48,0,0.87,0.39,0.87,0.87v1.61C175.11,38.97,174.72,39.36,174.24,39.36z"/>
				<path class="st1" d="M177.46,39.36L177.46,39.36c-0.48,0-0.87-0.39-0.87-0.87v-1.61c0-0.48,0.39-0.87,0.87-0.87l0,0
					c0.48,0,0.87,0.39,0.87,0.87v1.61C178.33,38.97,177.94,39.36,177.46,39.36z"/>
			</g>
			<g>
				<path class="st1" d="M170.81,43.93L170.81,43.93c-0.48,0-0.87-0.39-0.87-0.87v-1.61c0-0.48,0.39-0.87,0.87-0.87l0,0
					c0.48,0,0.87,0.39,0.87,0.87v1.61C171.68,43.53,171.29,43.93,170.81,43.93z"/>
				<path class="st1" d="M174.24,43.93L174.24,43.93c-0.48,0-0.87-0.39-0.87-0.87v-1.61c0-0.48,0.39-0.87,0.87-0.87h0
					c0.48,0,0.87,0.39,0.87,0.87v1.61C175.11,43.53,174.72,43.93,174.24,43.93z"/>
				<path class="st1" d="M177.46,43.93L177.46,43.93c-0.48,0-0.87-0.39-0.87-0.87v-1.61c0-0.48,0.39-0.87,0.87-0.87l0,0
					c0.48,0,0.87,0.39,0.87,0.87v1.61C178.33,43.53,177.94,43.93,177.46,43.93z"/>
			</g>
		</g>
	</g>
	<g>
		<g>
			<path class="st2" d="M107.88,122.29c-11.82,0-17.74-5.37-17.74-16.1c0-10.55,5.91-15.82,17.74-15.82h23.06v14.19h-23.06
				c-2.37,0-3.55,0.54-3.55,1.63c0,1.28,1.18,1.92,3.55,1.92h10.64c11.82,0,17.74,5.27,17.74,15.82c0,10.74-5.91,16.1-17.74,16.1
				H95.46v-14.19h23.06c2.36,0,3.55-0.64,3.55-1.92c0-1.09-1.18-1.63-3.55-1.63H107.88z"/>
			<path class="st2" d="M139.47,99.62h11.54v14.43H164V99.62h11.54v40.4H164v-14.43h-12.99v14.43h-11.54V99.62z"/>
			<path class="st2" d="M178.47,119.82v-20.2h11.54v20.2c0,5.77,1.92,8.66,5.77,8.66c3.85,0,5.77-2.89,5.77-8.66v-20.2h11.54v20.2
				c0,13.47-5.77,20.2-17.32,20.2S178.47,133.29,178.47,119.82z"/>
			<path class="st2" d="M227.56,128.48h11.54v11.54h-23.09v-40.4h11.54V128.48z"/>
			<path class="st2" d="M269.73,99.62v11.54h-17.32v2.89h14.43v11.54h-14.43v2.89h17.32v11.54h-28.86v-40.4H269.73z"/>
		</g>
	</g>
	<g>
		<g>
			<path class="st0" d="M34.21,125.83v-14.19H48.4v28.38H28.89c-6.86,0-12.71-2.42-17.56-7.27c-4.85-4.85-7.27-10.7-7.27-17.56
				c0-6.86,2.42-12.71,7.27-17.56c4.85-4.85,10.7-7.27,17.56-7.27h15.96v14.19H28.89c-2.93,0-5.44,1.04-7.52,3.12
				c-2.08,2.08-3.12,4.59-3.12,7.52c0,2.93,1.04,5.44,3.12,7.52c2.08,2.08,4.59,3.12,7.52,3.12H34.21z"/>
			<path class="st0" d="M70.29,140.02c-5.58,0-10.34-1.97-14.29-5.92c-3.94-3.94-5.92-8.71-5.92-14.29c0-5.58,1.97-10.34,5.92-14.29
				c3.94-3.94,8.71-5.92,14.29-5.92s10.34,1.97,14.29,5.92c3.94,3.94,5.92,8.71,5.92,14.29c0,5.58-1.97,10.34-5.92,14.29
				C80.64,138.05,75.87,140.02,70.29,140.02z M76.41,125.94c1.69-1.69,2.54-3.73,2.54-6.12c0-2.38-0.85-4.42-2.54-6.12
				c-1.69-1.69-3.73-2.54-6.12-2.54s-4.43,0.85-6.12,2.54c-1.69,1.69-2.54,3.73-2.54,6.12c0,2.39,0.85,4.43,2.54,6.12
				c1.69,1.69,3.73,2.54,6.12,2.54S74.72,127.63,76.41,125.94z"/>
		</g>
	</g>
	<g>
		<path class="st2" d="M105.05,156.55l-0.38,0.22l0.08,0.32c0,0.18-0.17,0.27-0.52,0.27l-0.16,0.44l-0.69,0.46
			c-0.13,0.2-0.26,0.37-0.4,0.51c-0.2,0-0.41,0.08-0.63,0.25c-0.21,0.17-0.36,0.28-0.43,0.33c-0.07,0.05-0.15,0.1-0.24,0.14
			c-0.09,0.04-0.18,0.08-0.27,0.11c-0.09,0.03-0.22,0.09-0.39,0.18c-0.17,0.09-0.27,0.14-0.31,0.15c-0.04,0.01-0.09,0.01-0.16,0.01
			h-0.13c-0.26,0-0.59,0.16-1,0.48l-0.32-0.06l-0.26,0.08c-0.18,0.06-0.3,0.09-0.37,0.09c-0.09,0-0.19-0.01-0.3-0.05
			c-0.11-0.03-0.19-0.05-0.22-0.05h-0.04c-0.1,0.08-0.18,0.11-0.26,0.11c-0.07,0-0.14-0.04-0.22-0.13l-0.36-0.04
			c-0.06,0-0.13,0.02-0.21,0.06l-0.29-0.1l-0.19,0.08l-0.42-0.18l-0.18-0.14c-0.05-0.04-0.21-0.11-0.48-0.19l-0.11-0.27
			c-0.33-0.09-0.51-0.14-0.54-0.15c-0.03-0.01-0.06-0.09-0.09-0.25c-0.03-0.16-0.08-0.26-0.16-0.32c-0.08-0.05-0.14-0.12-0.19-0.19
			c-0.05-0.07-0.09-0.18-0.14-0.31c-0.04-0.13-0.1-0.25-0.16-0.35c-0.09-0.14-0.15-0.27-0.2-0.4s-0.07-0.26-0.07-0.38v-0.06
			l0.04-0.64c-0.08-0.15-0.12-0.3-0.12-0.44l0.12-0.36v-0.36l0.12-0.06l0.04-0.34l0.26-0.96l0.18-0.46l0.09-0.02l0.04-0.32
			c0.07-0.02,0.12-0.14,0.14-0.36c0.03-0.22,0.11-0.41,0.25-0.56c0.14-0.15,0.21-0.27,0.21-0.36c0-0.11-0.03-0.2-0.08-0.28
			l0.25-0.08c0.14-0.2,0.27-0.34,0.4-0.44l0.11-0.44l0.27-0.16l0.08-0.34c0.29-0.06,0.49-0.18,0.6-0.36s0.25-0.29,0.41-0.32
			l0.13-0.13c0.03-0.04,0.18-0.1,0.43-0.18l0.06,0.04l0.24-0.24l0.14,0.17l0.2,0.04c0.21-0.08,0.44-0.12,0.67-0.12l0.42,0.07
			c0.02,0.01,0.07,0.03,0.15,0.07l0.65,0.25l1.47,0.93c0.06,0.19,0.16,0.34,0.3,0.44l0.12,0.4c0.13,0.31,0.19,0.53,0.19,0.64
			l-0.02,0.46c-0.03,0.14-0.05,0.29-0.05,0.44c0,0.01,0.01,0.03,0.03,0.04c0,0.04-0.05,0.11-0.14,0.22
			c-0.09,0.11-0.16,0.19-0.2,0.24l-0.38,0.08l-0.13-0.1c-0.05-0.04-0.09-0.08-0.1-0.1l-0.06-0.11c-0.03-0.03-0.05-0.09-0.07-0.17
			c-0.02-0.08-0.04-0.16-0.06-0.23v-0.32l-0.06-0.36v-0.5l0.08-0.38c-0.26-0.46-0.59-0.73-0.99-0.83c-0.08-0.02-0.12-0.04-0.12-0.07
			v-0.02c-0.01-0.03-0.04-0.05-0.09-0.08c-0.05-0.03-0.09-0.06-0.11-0.1h-0.44l-0.3-0.24c-0.2,0-0.31,0.04-0.31,0.12l-0.19-0.12
			l-0.2,0.14l-0.28-0.04l-0.2,0.15c-0.05-0.01-0.14-0.02-0.26-0.02c-0.1,0-0.21,0.02-0.32,0.06l-0.34,0.48l-0.56,0.56l-0.44,0.67
			l-0.18,0.08l-0.17,0.54l-0.29,0.24v0.29l-0.36,0.61l-0.17,0.68h-0.14l0.08,0.4l-0.2,0.4l0.06,0.14h-0.12v0.32l-0.08,0.06
			l0.02,0.82l-0.09,0.61c0.16,0.24,0.24,0.42,0.23,0.54l0.18,0.14v0.25l0.15,0.23l-0.09,0.23l0.4,0.42l0.02,0.21l0.65,0.25
			l-0.06,0.27l0.86,0.07l0.27,0.27l0.44-0.14l0.23,0.28l0.48-0.17c0.12-0.1,0.21-0.14,0.28-0.14c0.04,0,0.06,0.02,0.06,0.06
			l0.31-0.02l0.17,0.14l0.34-0.12h0.1c0.21,0,0.36-0.05,0.44-0.16c0.09-0.11,0.23-0.16,0.43-0.16c0.06,0,0.16,0.01,0.3,0.04
			c0.03-0.15,0.18-0.23,0.44-0.25c0.1-0.12,0.28-0.22,0.52-0.3c0.1,0,0.3-0.07,0.6-0.2l0.15-0.26c0.07-0.02,0.27-0.11,0.58-0.26
			l0.22-0.29l0.36-0.15l1.11-1.16l0.38-0.21L105.05,156.55z"/>
		<path class="st2" d="M114.2,160.1c0.01,0.07,0.02,0.16,0.02,0.27c0,0.32-0.15,0.48-0.46,0.48c-0.2,0-0.34-0.17-0.42-0.52
			l-0.14-0.64v-0.19c0.01-0.1,0.02-0.21,0.02-0.35c0-0.16-0.07-0.35-0.21-0.55l0.14-0.34l-0.08-0.5l0.08-0.25v-0.34l0.05-0.3
			l-0.09-0.33l0.09-0.19v-0.78l0.02-1l-0.15-0.66l0.08-0.28l-0.18-0.8v-0.25l-0.34-0.14l-0.38,0.35c-0.05,0.05-0.12,0.09-0.2,0.13
			l-0.36,0.15l-0.58,0.84l-0.23,0.06l-0.52,0.86v0.1h-0.14l-0.06,0.18l-0.22,0.21c-0.08,0.09-0.15,0.22-0.19,0.4l-0.21,0.73
			l-0.32,0.41c-0.04,0.05-0.09,0.16-0.14,0.35l-0.2,0.19l-0.09,0.54l-0.44,0.42l-0.04,0.58h-0.08l-0.14,0.4l-0.34,0.6
			c-0.27,0.3-0.43,0.5-0.48,0.61l-0.1-0.04H107l-0.06-0.11l-0.18-0.71l-0.04-1.15l-0.06-0.34l0.06-0.42l-0.02-0.73l0.1-0.04
			l0.14-1.78l0.06-0.34l-0.02-0.25l0.11-0.06l-0.05-0.14l0.09-0.74l0.1-0.3l-0.06-0.31l0.06-0.15l-0.06-0.12l0.06-0.69l-0.1-0.1
			l0.06-0.14l-0.02-0.8l-0.13-0.36h0.13v-0.18l-0.19-0.86v-0.42l-0.08-0.19l-0.1-0.66c-0.08-0.31-0.19-0.59-0.34-0.86l0.23-0.34
			l-0.04-0.06c0.16,0,0.25,0.09,0.25,0.26l0.3,0.27l0.08,0.25c0.03,0.08,0.11,0.19,0.26,0.35l-0.05,0.18l0.13,0.38l-0.13,0.18
			l0.19,0.15l-0.02,0.54l0.02,1.04l0.12,0.53l-0.08,0.22l0.02,0.4l-0.08,0.34l0.06,0.52l-0.14,0.52l0.08,0.14l-0.04,1.28l0.04,0.19
			l-0.08,0.1l-0.09,0.78l-0.1,0.23l0.08,0.25l-0.04,0.12l-0.04,0.69l-0.2,0.6c0.15,0.18,0.22,0.3,0.22,0.36l-0.16,0.3
			c0.07,0.14,0.1,0.3,0.1,0.5l0.19-0.15l0.08-0.27l0.33-0.67l0.15-0.48c0.23-0.07,0.34-0.21,0.34-0.44c0.04-0.02,0.14-0.19,0.31-0.5
			l0.09-0.27c0.03-0.09,0.1-0.2,0.2-0.34l0.02-0.28l-0.06-0.06l0.14-0.12l0.04,0.06l0.34-0.42c0.11-0.05,0.16-0.14,0.16-0.25v-0.08
			c0.18-0.03,0.28-0.15,0.28-0.38l0.06-0.04v-0.1l0.17-0.04l0.02-0.28h0.14l-0.02-0.16h0.14v-0.13c0.1-0.07,0.15-0.1,0.17-0.1
			c0.01,0,0.02,0.01,0.02,0.04v0.04l0.02-0.18h0.06c0.16,0,0.25-0.13,0.25-0.4l0.26-0.2l0.04,0.08c0.1-0.12,0.17-0.26,0.19-0.42
			l0.14-0.06l0.06-0.17l0.16-0.02c0.06-0.05,0.14-0.09,0.24-0.11c0.1-0.02,0.15-0.03,0.16-0.04l-0.04-0.08
			c0.29-0.16,0.46-0.24,0.52-0.24c0.09,0,0.2,0.09,0.34,0.28c0.1,0.01,0.15,0.07,0.15,0.18l0.18,0.15c0,0.1,0.11,0.33,0.34,0.71
			v1.63l-0.04,0.86l0.08,0.21v1.53l-0.04,0.28v0.52l0.04,0.44l-0.08,0.52c0.05,0.05,0.1,0.26,0.12,0.62l0.2,0.26v0.26L114.2,160.1z"
			/>
		<path class="st2" d="M123.47,155.25l-0.14,0.44l0.08,0.18l-0.07,0.49c-0.01,0.06-0.06,0.17-0.15,0.33v0.25l-0.15,0.42l-0.12,0.18
			c-0.04,0.05-0.11,0.22-0.2,0.53l-0.15,0.06l-0.08,0.28l-0.22,0.14l-0.17,0.38l-0.31,0.14l-0.03,0.28l-0.27,0.1
			c-0.13,0.17-0.21,0.28-0.25,0.33c-0.04,0.05-0.13,0.09-0.28,0.14s-0.24,0.09-0.29,0.12c-0.03,0.22-0.23,0.34-0.58,0.37
			c-0.08,0.1-0.18,0.15-0.3,0.15c-0.03,0-0.09-0.01-0.16-0.04c-0.19,0.17-0.37,0.27-0.53,0.31l-0.16,0.26l-0.28-0.16l-0.06,0.12
			l-0.31-0.12l-0.74-0.07c-0.12-0.25-0.3-0.49-0.54-0.75l0.08-0.28l-0.3-0.76l0.12-0.25l-0.12-0.57l0.12-0.33
			c0-0.03-0.01-0.12-0.03-0.27s-0.03-0.24-0.03-0.28c0-0.14,0.07-0.26,0.21-0.35v-0.11c0-0.16,0.04-0.31,0.12-0.46h0.12
			c0.1-0.12,0.15-0.25,0.15-0.4l-0.06-0.14l0.06-0.32v-0.21c0.12-0.15,0.18-0.3,0.18-0.46l-0.06-0.34c0-0.1,0.02-0.18,0.06-0.25
			c0.21-0.11,0.32-0.21,0.32-0.32c0-0.07-0.03-0.14-0.08-0.21l0.2-0.36c0.03-0.05,0.07-0.1,0.13-0.13c0.06-0.03,0.09-0.06,0.11-0.07
			l-0.04-0.2c0.22-0.02,0.33-0.13,0.33-0.34c0-0.12-0.02-0.25-0.06-0.38c0.46,0,0.77-0.24,0.92-0.71h0.13
			c0.1-0.1,0.16-0.14,0.2-0.14c0.01,0,0.07,0.02,0.18,0.05c0.11,0.03,0.27,0.05,0.5,0.05l0.33-0.14v0.14
			c0.14,0.01,0.32,0.09,0.53,0.24h0.29c0.07,0.14,0.13,0.2,0.19,0.2l0.04-0.02c0.16,0.25,0.32,0.42,0.48,0.52l0.1,0.25l0.19,0.08
			l0.33,0.48l0.34,0.96v0.19L123.47,155.25z M122.8,155.83c0.08-0.1,0.12-0.19,0.12-0.25c0-0.05-0.02-0.1-0.07-0.15
			c-0.05-0.05-0.07-0.08-0.07-0.1h0.12c-0.02-0.08-0.07-0.15-0.14-0.21l0.04-0.06l-0.14-0.34l0.04-0.46l-0.19-0.33
			c-0.15-0.1-0.23-0.17-0.23-0.21v-0.06c0-0.05-0.03-0.09-0.08-0.11c-0.05-0.02-0.08-0.05-0.08-0.09v-0.02
			c0-0.02,0.03-0.11,0.09-0.27l-0.13-0.1l-0.2-0.02l-0.08-0.15l0.08-0.12l-0.28-0.14l-0.2-0.19l-0.59-0.25l-0.25-0.05
			c-0.4,0-0.6,0.11-0.59,0.34l0.03,0.7l-0.42,0.02l-0.65,0.4l-0.06,0.22l-0.23,0.15l-0.1,0.6l-0.2,0.14
			c-0.04,0.02-0.06,0.12-0.06,0.3c0,0.16,0.01,0.28,0.04,0.38l-0.26,0.14c-0.05,0.03-0.08,0.16-0.08,0.4c0,0.11-0.06,0.21-0.19,0.32
			v0.21l-0.18,0.3v0.18l-0.06,0.13l0.04,0.29l-0.28,0.67l0.09,0.22v0.49l-0.09,0.35l0.02,0.51l0.31,0.4
			c0.03,0.05,0.16,0.13,0.37,0.22l0.06,0.1l0.14-0.04l0.13,0.04l0.25-0.1l0.5,0.02l0.23-0.06l0.06-0.14l0.21,0.02
			c0.22,0,0.33-0.07,0.33-0.21l0.3,0.08l0.06-0.16l0.19-0.02l0.1-0.24c0.15-0.12,0.23-0.21,0.25-0.29h0.34l0.1-0.21l0.36-0.32
			l0.13-0.19c0.05-0.08,0.12-0.13,0.18-0.17l0.3-0.15c0.03-0.19,0.1-0.38,0.18-0.58l-0.04-0.18l0.3-0.13l-0.04-0.1
			c0.08-0.12,0.16-0.21,0.22-0.3h-0.1c0.05-0.08,0.08-0.14,0.08-0.18c0-0.04-0.01-0.09-0.03-0.15c-0.02-0.06-0.03-0.1-0.03-0.12
			c0-0.09,0.02-0.18,0.06-0.29c0.04-0.1,0.06-0.17,0.06-0.19C122.89,155.89,122.86,155.85,122.8,155.83z"/>
		<path class="st2" d="M132.01,155.25l-0.14,0.44l0.08,0.18l-0.07,0.49c-0.01,0.06-0.06,0.17-0.15,0.33v0.25l-0.15,0.42l-0.12,0.18
			c-0.04,0.05-0.11,0.22-0.2,0.53l-0.15,0.06l-0.08,0.28l-0.22,0.14l-0.17,0.38l-0.31,0.14l-0.03,0.28l-0.27,0.1
			c-0.13,0.17-0.21,0.28-0.25,0.33c-0.04,0.05-0.13,0.09-0.28,0.14s-0.24,0.09-0.29,0.12c-0.03,0.22-0.23,0.34-0.58,0.37
			c-0.08,0.1-0.18,0.15-0.3,0.15c-0.03,0-0.09-0.01-0.16-0.04c-0.19,0.17-0.37,0.27-0.53,0.31l-0.16,0.26l-0.28-0.16l-0.06,0.12
			l-0.31-0.12l-0.74-0.07c-0.12-0.25-0.3-0.49-0.54-0.75l0.08-0.28l-0.3-0.76l0.12-0.25l-0.12-0.57l0.12-0.33
			c0-0.03-0.01-0.12-0.03-0.27s-0.03-0.24-0.03-0.28c0-0.14,0.07-0.26,0.21-0.35v-0.11c0-0.16,0.04-0.31,0.12-0.46h0.12
			c0.1-0.12,0.15-0.25,0.15-0.4l-0.06-0.14l0.06-0.32v-0.21c0.12-0.15,0.18-0.3,0.18-0.46l-0.06-0.34c0-0.1,0.02-0.18,0.06-0.25
			c0.21-0.11,0.32-0.21,0.32-0.32c0-0.07-0.03-0.14-0.08-0.21l0.2-0.36c0.03-0.05,0.07-0.1,0.13-0.13c0.06-0.03,0.09-0.06,0.11-0.07
			l-0.04-0.2c0.22-0.02,0.33-0.13,0.33-0.34c0-0.12-0.02-0.25-0.06-0.38c0.46,0,0.77-0.24,0.92-0.71h0.13
			c0.1-0.1,0.16-0.14,0.2-0.14c0.01,0,0.07,0.02,0.18,0.05c0.11,0.03,0.27,0.05,0.5,0.05l0.33-0.14v0.14
			c0.14,0.01,0.32,0.09,0.53,0.24h0.29c0.07,0.14,0.13,0.2,0.19,0.2l0.04-0.02c0.16,0.25,0.32,0.42,0.48,0.52l0.1,0.25l0.19,0.08
			l0.33,0.48l0.34,0.96v0.19L132.01,155.25z M131.35,155.83c0.08-0.1,0.12-0.19,0.12-0.25c0-0.05-0.02-0.1-0.07-0.15
			c-0.05-0.05-0.07-0.08-0.07-0.1h0.12c-0.02-0.08-0.07-0.15-0.14-0.21l0.04-0.06l-0.14-0.34l0.04-0.46l-0.19-0.33
			c-0.15-0.1-0.23-0.17-0.23-0.21v-0.06c0-0.05-0.03-0.09-0.08-0.11c-0.05-0.02-0.08-0.05-0.08-0.09v-0.02
			c0-0.02,0.03-0.11,0.09-0.27l-0.13-0.1l-0.2-0.02l-0.08-0.15l0.08-0.12l-0.28-0.14l-0.2-0.19l-0.59-0.25l-0.25-0.05
			c-0.4,0-0.6,0.11-0.59,0.34l0.03,0.7l-0.42,0.02l-0.65,0.4l-0.06,0.22l-0.23,0.15l-0.1,0.6l-0.2,0.14
			c-0.04,0.02-0.06,0.12-0.06,0.3c0,0.16,0.01,0.28,0.04,0.38l-0.26,0.14c-0.05,0.03-0.08,0.16-0.08,0.4c0,0.11-0.06,0.21-0.19,0.32
			v0.21l-0.18,0.3v0.18l-0.06,0.13l0.04,0.29l-0.28,0.67l0.09,0.22v0.49l-0.09,0.35l0.02,0.51l0.31,0.4
			c0.03,0.05,0.16,0.13,0.37,0.22l0.06,0.1l0.14-0.04l0.13,0.04l0.25-0.1l0.5,0.02l0.23-0.06l0.06-0.14l0.21,0.02
			c0.22,0,0.33-0.07,0.33-0.21l0.3,0.08l0.06-0.16l0.19-0.02l0.1-0.24c0.15-0.12,0.23-0.21,0.25-0.29h0.34l0.1-0.21l0.36-0.32
			l0.13-0.19c0.05-0.08,0.12-0.13,0.18-0.17l0.3-0.15c0.03-0.19,0.1-0.38,0.18-0.58l-0.04-0.18l0.3-0.13l-0.04-0.1
			c0.08-0.12,0.16-0.21,0.22-0.3h-0.1c0.05-0.08,0.08-0.14,0.08-0.18c0-0.04-0.01-0.09-0.03-0.15c-0.02-0.06-0.03-0.1-0.03-0.12
			c0-0.09,0.02-0.18,0.06-0.29c0.04-0.1,0.06-0.17,0.06-0.19C131.43,155.89,131.4,155.85,131.35,155.83z"/>
		<path class="st2" d="M141.02,158.61l-0.14,0.16c-0.03,0.05-0.13,0.26-0.28,0.63l-0.3,0.21l0.02,0.12h-0.28l-0.27,0.3h-0.36
			l-0.23,0.12c-0.07,0-0.14,0.04-0.23,0.12c-0.09-0.04-0.18-0.06-0.28-0.06c-0.08,0-0.16,0.02-0.27,0.06v0.12l-0.38-0.04l-0.3,0.04
			l-0.28-0.04l-0.04,0.06l-0.1-0.06l-0.18,0.06h-0.13c-0.1,0-0.2,0.02-0.31,0.05l-0.21-0.07l-0.16,0.11l-0.08-0.09l-0.15,0.09
			c-0.18-0.1-0.32-0.15-0.44-0.15c-0.04,0-0.1,0.02-0.18,0.06c-0.09-0.05-0.21-0.08-0.36-0.09l-0.46-0.05
			c-0.14,0-0.26,0.01-0.34,0.04l-0.04-0.08l-0.18,0.12c-0.04-0.05-0.09-0.08-0.15-0.08l-0.06-0.12c-0.43-0.02-0.64-0.33-0.64-0.92
			l0.44-0.06l-0.02-0.15l0.1-0.14l0.06,0.12h0.12v0.1l0.19-0.1c0.11,0.02,0.16,0.07,0.16,0.15c0,0.04-0.02,0.1-0.06,0.18l0.18,0.02
			v0.32l0.53,0.08l0.2,0.18l0.06-0.1l2.68-0.16l0.92-0.17l0.05-0.1l0.22-0.04l0.06-0.08c0.32-0.06,0.6-0.17,0.84-0.34l0.06,0.06
			l0.04-0.12l0.15-0.12l0.02-0.07l-0.1-0.14l0.04-0.18l-0.23-0.19l-0.04-0.16c-0.11-0.04-0.18-0.08-0.2-0.12l-0.09,0.04l-0.2-0.19
			h-0.08l-0.09-0.12h-0.2c-0.04-0.11-0.12-0.16-0.24-0.16l-0.14,0.02c-0.23,0-0.44-0.07-0.62-0.21h-0.21l-0.27-0.16l-0.13,0.08
			l-0.06-0.1h-0.14l-0.23-0.19l-0.62-0.27l-0.23-0.21l-0.71-0.12l-0.02-0.06l-0.59-0.42l-0.27-0.67l-0.21-0.33l-0.06-0.97l0.06-0.1
			c0-0.27,0.07-0.51,0.21-0.71c0.26-0.15,0.39-0.3,0.4-0.44l0.14,0.02c0.05-0.17,0.18-0.34,0.39-0.5l0.26-0.22l1.22-0.52l0.61-0.11
			l0.6-0.18l0.94,0.06l0.04,0.12h0.06c0.12,0,0.21,0.04,0.28,0.11v0.18l0.26,0.18c-0.08,0.33-0.11,0.51-0.11,0.55
			c0,0.12-0.06,0.18-0.18,0.18c-0.05,0-0.15-0.15-0.3-0.44l-0.56-0.04l-0.14,0.04c-0.22-0.16-0.34-0.25-0.38-0.25
			c-0.04,0-0.06,0.02-0.06,0.06l-0.19,0.14c-0.23,0-0.42,0.06-0.56,0.18c-0.26,0.05-0.44,0.13-0.54,0.25h-0.24l-0.17,0.13
			c-0.05,0.03-0.18,0.08-0.41,0.14l-0.08,0.1l-0.11,0.06l-0.29,0.28l-0.19,0.31c-0.2,0.13-0.3,0.21-0.31,0.25l-0.21,0.86l0.1,0.06
			v0.06c0,0.23,0.11,0.43,0.34,0.59v0.1l0.56,0.34h0.13l0.31,0.31h0.42l0.26,0.21l0.48,0.06l0.14,0.12l0.9,0.28
			c0,0.08,0.05,0.12,0.15,0.12c0.17,0,0.33,0.04,0.47,0.12c0.14,0.08,0.28,0.13,0.41,0.15l0.02,0.1l0.18,0.1h0.4l0.36,0.23
			c0.04,0.15,0.13,0.28,0.28,0.38l-0.02,0.06l0.1,0.14l0.18,0.04l-0.08,0.15C140.92,158.39,141,158.5,141.02,158.61z"/>
		<path class="st2" d="M148.74,158.35c0.1,0.16,0.15,0.27,0.15,0.35c0,0.05-0.06,0.17-0.19,0.35c-0.13,0.18-0.22,0.36-0.29,0.56
			l-0.15,0.02l-0.23,0.44l-0.26,0.04l-0.56,0.38l-0.1,0.22l-0.17-0.02l-0.18,0.21h-0.3l-0.06,0.1l-0.14-0.02
			c-0.15,0-0.28,0.07-0.4,0.21l-0.13-0.1c-0.14,0.07-0.26,0.1-0.35,0.1c-0.16,0-0.28-0.03-0.38-0.1c-0.07,0.01-0.16,0.02-0.28,0.02
			l-0.12-0.1c-0.37-0.02-0.63-0.13-0.76-0.32v-0.26l-0.34-0.18l-0.08-0.21c-0.03-0.07-0.1-0.16-0.22-0.27v-0.16l-0.23-0.99
			l0.04-0.71l0.08-0.4v-0.44l0.11-0.38l-0.04-0.28c0.08-0.06,0.12-0.14,0.14-0.23s0.06-0.2,0.12-0.31c-0.03-0.12-0.05-0.3-0.08-0.52
			l0.18-0.15l-0.18-0.2c0.1-0.16,0.14-0.25,0.14-0.3l-0.1-0.62c0-0.15,0.02-0.3,0.06-0.44c0.08,0.12,0.17,0.18,0.28,0.18
			c0.05,0,0.19-0.03,0.4-0.08c-0.01-0.04-0.02-0.09-0.02-0.14c0-0.1,0.05-0.18,0.16-0.26c0.11-0.34,0.26-0.66,0.46-0.96
			c0.13-0.1,0.19-0.24,0.19-0.42h0.1l0.1-0.2l0.12-0.05c0.03-0.09,0.1-0.19,0.21-0.31c0.16-0.05,0.34-0.21,0.56-0.48
			c0.03,0.01,0.09,0.02,0.17,0.02c0.02,0,0.08-0.08,0.16-0.24c0.24-0.08,0.36-0.12,0.38-0.12c0.06,0,0.12,0.04,0.18,0.12l0.19-0.04
			l0.1,0.08h0.12c0.08,0.22,0.21,0.34,0.42,0.34h0.06c0.02,0.1,0.06,0.17,0.13,0.21l-0.09,0.04c0.24,0.12,0.36,0.38,0.36,0.81
			l-0.06,0.23l0.06,0.58l-0.1,0.09l-0.24,0.62l-0.42,0.52l-0.02,0.3c-0.5,0.41-0.91,0.69-1.23,0.84c-0.03,0.08-0.07,0.12-0.13,0.12
			c-0.03,0-0.08-0.01-0.16-0.04l-0.46,0.32h-0.28l-0.4,0.18l-0.17-0.1c-0.05-0.03-0.19-0.05-0.43-0.08
			c-0.21,0.2-0.32,0.45-0.32,0.77l-0.14,0.17c-0.03,0.26-0.06,0.44-0.1,0.54l-0.11,0.06l0.11,0.76l-0.11,0.1l0.02,0.23l-0.02,0.29
			c0,0.05,0.02,0.18,0.05,0.39c0.03,0.21,0.09,0.33,0.16,0.37c-0.03,0.1,0.03,0.21,0.2,0.35c0.17,0.14,0.35,0.23,0.54,0.29v0.12
			l0.54,0.08l0.78,0.04l0.52-0.06c0.21-0.15,0.36-0.24,0.46-0.28l0.16-0.25h0.19l0.02-0.1c0.3-0.1,0.46-0.17,0.5-0.21
			c0.03-0.04,0.05-0.07,0.05-0.11c0.04-0.08,0.1-0.12,0.18-0.12l0.06-0.13c0.31-0.05,0.5-0.25,0.57-0.6
			C148.56,158.37,148.64,158.35,148.74,158.35z M147.02,153.57c0.05-0.01,0.15-0.09,0.28-0.26l0.06-0.25
			c0.17-0.29,0.27-0.47,0.3-0.55s0.04-0.18,0.04-0.29c0-0.12-0.05-0.32-0.14-0.61l-0.42-0.14c-0.11,0.03-0.18,0.04-0.21,0.04
			l-0.12-0.04c-0.1,0-0.17,0.06-0.21,0.18c-0.12,0-0.31,0.05-0.56,0.15l-0.06,0.14c-0.03-0.01-0.05-0.02-0.08-0.02
			c-0.02,0-0.04,0-0.06,0.01s-0.03,0.02-0.05,0.03s-0.03,0.03-0.04,0.05c-0.01,0.02-0.03,0.04-0.04,0.07s-0.02,0.06-0.03,0.09
			c-0.01,0.03-0.02,0.06-0.03,0.09c-0.01,0.03-0.05,0.09-0.13,0.18l-0.15,0.18l-0.3,0.56l-0.15,0.13c-0.05,0.04-0.09,0.13-0.11,0.27
			c-0.03,0.14-0.21,0.46-0.55,0.98l0.14,0.08l0.07,0.17l0.35,0.1c0.2-0.14,0.41-0.23,0.63-0.28l0.06-0.12
			c0.07,0.03,0.13,0.04,0.16,0.04c0.07,0,0.13-0.04,0.19-0.12l0.25-0.04l0.15-0.26h0.14l0.1-0.22c0.18,0,0.36-0.08,0.52-0.26V153.57
			z"/>
		<path class="st2" d="M164.54,147.44c0,0.1-0.04,0.18-0.12,0.27l-0.08-0.08l-0.19,0.12l-0.16-0.4c-0.13-0.38-0.24-0.62-0.33-0.73
			c-0.09-0.11-0.16-0.17-0.21-0.17l-0.15,0.11c-0.16-0.11-0.35-0.17-0.58-0.19l-0.23,0.17c-0.11-0.06-0.22-0.09-0.33-0.09
			l-0.51,0.07c-0.05,0.09-0.08,0.18-0.08,0.27c-0.04,0.05-0.06,0.08-0.08,0.08c-0.01,0-0.03-0.01-0.05-0.04
			c-0.02-0.03-0.04-0.04-0.05-0.04c-0.1,0-0.38,0.42-0.84,1.26c-0.05,0.37-0.11,0.61-0.16,0.72l-0.11,0.02
			c-0.08,0.29-0.17,0.54-0.29,0.78l0.16,0.41l-0.26,0.11c-0.05,0.35-0.12,0.59-0.2,0.71l0.02,0.34l-0.3,0.78l0.04,0.4
			c0,0.09-0.05,0.24-0.14,0.44c-0.07,0.08-0.1,0.21-0.1,0.4c0,0.24,0.11,0.36,0.34,0.36h0.12c0.1-0.09,0.21-0.13,0.32-0.13h0.08
			c0.08,0,0.18-0.01,0.32-0.04c0.02-0.02,0.1-0.02,0.23,0c0.13,0.02,0.25,0.03,0.35,0.03h0.16c0.14-0.05,0.23-0.08,0.26-0.08
			c0.05,0,0.2,0.05,0.44,0.14l0.46-0.1c0.01,0,0.04,0.01,0.11,0.04s0.13,0.04,0.21,0.04c0.11,0,0.2-0.01,0.27-0.04
			c0.08,0.1,0.14,0.15,0.2,0.15c0.12-0.08,0.2-0.11,0.27-0.11c0.04,0,0.06,0.04,0.06,0.11c0,0.03-0.01,0.11-0.04,0.25l-0.58,0.19
			l-0.62-0.13c-0.1,0.09-0.27,0.15-0.51,0.19c-0.1-0.12-0.19-0.17-0.27-0.17c-0.05,0-0.19,0.08-0.42,0.25
			c-0.06,0-0.19-0.02-0.38-0.06l-0.06,0.1l-0.32,0.14l-0.22-0.12l-0.15,0.02h-0.16c-0.05,0.01-0.12,0.06-0.2,0.15
			c-0.09,0.09-0.19,0.14-0.3,0.14l-0.24,0.27l0.06,0.28l-0.08,0.34l0.08,0.34l-0.22,0.5l0.06,0.88l-0.12,0.33l0.06,0.3l-0.19,0.5
			l0.11,0.46v0.02c0,0.03-0.03,0.12-0.08,0.28c-0.05,0.16-0.08,0.34-0.08,0.56l-0.02,0.55c0,0.2,0.05,0.34,0.15,0.44l-0.09,0.27
			l0.13,0.48l-0.09,0.32l0.24,1.13l0.06,1.25l0.34,0.47l-0.14,0.1l-0.07,0.32c0.17,0.22,0.26,0.43,0.26,0.62v0.1
			c0.04,0.15,0.06,0.27,0.06,0.36c0,0.18-0.08,0.28-0.25,0.3l-0.11-0.23l-0.16-0.1l-0.02-0.24l-0.42-1.21v-0.32l-0.14-0.17l0.12-0.2
			l-0.1-0.46l0.08-0.36c0-0.01-0.02-0.06-0.05-0.15c-0.03-0.1-0.05-0.21-0.05-0.35c0-0.14,0-0.22,0-0.23l-0.15-1.08l0.08-0.04
			l-0.1-0.52l0.04-0.38l-0.1-0.19l0.08-0.14l-0.02-1.11l0.08-0.1v-0.86l0.09-0.18l-0.05-0.71l0.05-0.2l0.18-1.4
			c0.01-0.06,0.03-0.15,0.06-0.26c0.03-0.11,0.05-0.2,0.05-0.25c0-0.01-0.06-0.15-0.18-0.42l-0.34,0.15l-0.32-0.1l-0.2,0.12
			l-0.24-0.15l-0.06,0.09l-0.34,0.06l-0.35-0.08l-0.59,0.1l-0.31-0.06l-0.09,0.06c-0.23-0.08-0.39-0.15-0.47-0.21
			c-0.09-0.06-0.16-0.19-0.21-0.4l0.1-0.31c0.02-0.09,0.08-0.13,0.18-0.13c0.06,0,0.19,0.03,0.38,0.09l0.06,0.14l0.67-0.08
			l0.84,0.06l0.58-0.14l0.42,0.02c0.19,0,0.32,0.05,0.4,0.14c0-0.05,0.09-0.1,0.26-0.16l-0.06-0.19l0.1-0.42l0.03-0.39
			c0.01-0.13,0.05-0.3,0.13-0.51l-0.08-0.52c0.01-0.02,0.03-0.06,0.08-0.13c0.04-0.07,0.07-0.15,0.07-0.25V151l0.19-0.19l0.1-0.68
			l0.12-0.17l-0.06-0.31c0.12-0.19,0.19-0.36,0.24-0.5c-0.01-0.03-0.02-0.06-0.02-0.11c0-0.06,0.03-0.17,0.08-0.32
			c0.05-0.15,0.09-0.26,0.12-0.33c0.02-0.07,0.07-0.16,0.13-0.26s0.09-0.19,0.09-0.26l-0.02-0.11v-0.06c0-0.1,0.05-0.18,0.16-0.25
			l-0.06-0.11c0-0.05,0.06-0.12,0.18-0.2c0.15-0.23,0.27-0.46,0.36-0.7c0.12-0.01,0.23-0.17,0.34-0.48l0.31-0.1h0.28l0.14-0.18
			l0.38,0.12c0.22-0.12,0.41-0.17,0.55-0.17l0.42,0.09c0.16,0.05,0.25,0.08,0.27,0.08c0.06,0,0.16-0.03,0.3-0.08
			c0.05,0.03,0.12,0.14,0.18,0.31l0.32,0.21c0.12,0.28,0.26,0.51,0.44,0.68l0.06,0.47V147.44z"/>
		<path class="st2" d="M171.35,152.04l-0.06,0.26l-0.61,0.08l-0.4,0.3l-0.27,0.04l-0.34,0.2l-0.34,0.15
			c-0.16,0.14-0.3,0.23-0.4,0.27v0.1l-0.31,0.15l-0.21,0.34h-0.23l-0.11,0.33l-0.23,0.15c-0.1,0.05-0.17,0.13-0.23,0.22l-0.2,0.38
			c-0.16,0.08-0.25,0.27-0.28,0.56l-0.1-0.04l-0.04,0.13l-0.15,0.1l-0.14,0.36c-0.15,0.21-0.23,0.37-0.23,0.48l-0.19,0.08v0.44
			c-0.04,0.05-0.08,0.12-0.1,0.22l0.04,0.07l-0.2,0.08l0.06,0.16c-0.02,0.14-0.13,0.39-0.32,0.76l0.1,0.27l-0.21,0.34
			c0.03,0.14,0.04,0.24,0.04,0.32l-0.04,0.34l0.09,0.37c0.01,0.02,0.04,0.06,0.09,0.12l0.15,0.15c-0.09,0.17-0.17,0.29-0.26,0.36
			l-0.28-0.1l0.04,0.18l-0.46-0.08v-0.28l-0.06-0.18l0.06-0.34l-0.06-0.14l0.04-0.71l-0.04-0.48c-0.1-0.03-0.14-0.08-0.14-0.12
			c0-0.05,0.05-0.14,0.14-0.25v-0.31c0-0.16-0.01-0.28-0.02-0.36l0.08-0.1l-0.08-0.4l0.06-0.32l-0.06-0.19l0.06-0.56l-0.1-0.16
			l0.06-0.19l-0.12-0.42l0.04-0.33c0-0.09-0.01-0.21-0.04-0.38l0.06-0.1l-0.12-0.72l-0.15-0.1l0.15-0.36
			c-0.14-0.2-0.21-0.43-0.21-0.7v-0.29c-0.06-0.07-0.1-0.13-0.12-0.19c0.1-0.13,0.27-0.24,0.52-0.34l0.15,0.04
			c0.03,0.17,0.1,0.33,0.22,0.49l-0.04,0.52l0.2,1.58c0,0.1-0.04,0.19-0.12,0.28l0.1,0.44l-0.06,0.32l0.06,0.34l-0.04,0.27
			l0.15,0.32l-0.09,0.06l0.07,0.48l0.16,0.04l0.07-0.41c0.01-0.05,0.09-0.17,0.25-0.37c0.18-0.16,0.27-0.33,0.27-0.52v-0.12
			l0.13-0.06c0.02,0,0.04-0.03,0.05-0.08s0.04-0.08,0.07-0.08h0.06l0.12-0.41l0.32-0.21l0.02-0.12h0.14l-0.06-0.24l0.32-0.14
			l0.02-0.25l0.3-0.04c0.15-0.12,0.25-0.26,0.31-0.4l0.19-0.04c0.03-0.05,0.15-0.18,0.38-0.38c0.05,0,0.08-0.02,0.1-0.06l0.34-0.18
			l0.08-0.15l0.18-0.1c0.36-0.27,0.61-0.4,0.74-0.4h0.08c0.12,0,0.22-0.03,0.3-0.1l0.18,0.06c0.1-0.07,0.17-0.1,0.24-0.1
			C171.2,151.97,171.33,152.01,171.35,152.04z"/>
		<path class="st2" d="M178.56,155.25l-0.14,0.44l0.08,0.18l-0.07,0.49c-0.01,0.06-0.06,0.17-0.15,0.33v0.25l-0.15,0.42l-0.12,0.18
			c-0.04,0.05-0.11,0.22-0.2,0.53l-0.15,0.06l-0.08,0.28l-0.23,0.14l-0.17,0.38l-0.31,0.14l-0.03,0.28l-0.27,0.1
			c-0.13,0.17-0.21,0.28-0.25,0.33c-0.04,0.05-0.13,0.09-0.28,0.14s-0.24,0.09-0.29,0.12c-0.03,0.22-0.23,0.34-0.58,0.37
			c-0.08,0.1-0.18,0.15-0.3,0.15c-0.03,0-0.09-0.01-0.16-0.04c-0.19,0.17-0.37,0.27-0.53,0.31l-0.16,0.26l-0.28-0.16l-0.06,0.12
			l-0.31-0.12l-0.74-0.07c-0.12-0.25-0.3-0.49-0.54-0.75l0.08-0.28l-0.3-0.76l0.12-0.25l-0.12-0.57l0.12-0.33
			c0-0.03-0.01-0.12-0.03-0.27s-0.03-0.24-0.03-0.28c0-0.14,0.07-0.26,0.21-0.35v-0.11c0-0.16,0.04-0.31,0.12-0.46h0.12
			c0.1-0.12,0.15-0.25,0.15-0.4l-0.06-0.14l0.06-0.32v-0.21c0.12-0.15,0.18-0.3,0.18-0.46l-0.06-0.34c0-0.1,0.02-0.18,0.06-0.25
			c0.21-0.11,0.32-0.21,0.32-0.32c0-0.07-0.03-0.14-0.08-0.21l0.2-0.36c0.03-0.05,0.07-0.1,0.13-0.13c0.06-0.03,0.09-0.06,0.11-0.07
			l-0.04-0.2c0.22-0.02,0.33-0.13,0.33-0.34c0-0.12-0.02-0.25-0.06-0.38c0.46,0,0.77-0.24,0.92-0.71h0.13
			c0.09-0.1,0.16-0.14,0.2-0.14c0.01,0,0.07,0.02,0.18,0.05s0.27,0.05,0.5,0.05l0.33-0.14v0.14c0.14,0.01,0.32,0.09,0.53,0.24h0.29
			c0.07,0.14,0.13,0.2,0.19,0.2l0.04-0.02c0.16,0.25,0.32,0.42,0.48,0.52l0.1,0.25l0.19,0.08l0.33,0.48l0.34,0.96v0.19
			L178.56,155.25z M177.9,155.83c0.08-0.1,0.12-0.19,0.12-0.25c0-0.05-0.02-0.1-0.07-0.15s-0.07-0.08-0.07-0.1H178
			c-0.02-0.08-0.07-0.15-0.14-0.21l0.04-0.06l-0.14-0.34l0.04-0.46l-0.19-0.33c-0.15-0.1-0.22-0.17-0.22-0.21v-0.06
			c0-0.05-0.03-0.09-0.08-0.11c-0.05-0.02-0.08-0.05-0.08-0.09v-0.02c0-0.02,0.03-0.11,0.09-0.27l-0.13-0.1l-0.2-0.02l-0.08-0.15
			l0.08-0.12l-0.28-0.14l-0.2-0.19l-0.59-0.25l-0.25-0.05c-0.4,0-0.6,0.11-0.59,0.34l0.03,0.7l-0.42,0.02l-0.65,0.4l-0.06,0.22
			l-0.24,0.15l-0.1,0.6l-0.21,0.14c-0.04,0.02-0.06,0.12-0.06,0.3c0,0.16,0.01,0.28,0.04,0.38l-0.25,0.14
			c-0.05,0.03-0.08,0.16-0.08,0.4c0,0.11-0.06,0.21-0.19,0.32v0.21l-0.18,0.3v0.18l-0.06,0.13l0.04,0.29l-0.28,0.67l0.09,0.22v0.49
			l-0.09,0.35l0.02,0.51l0.31,0.4c0.03,0.05,0.16,0.13,0.37,0.22l0.06,0.1l0.14-0.04l0.13,0.04l0.25-0.1l0.5,0.02l0.24-0.06
			l0.06-0.14l0.21,0.02c0.22,0,0.33-0.07,0.33-0.21l0.3,0.08l0.06-0.16l0.19-0.02l0.1-0.24c0.15-0.12,0.23-0.21,0.25-0.29h0.34
			l0.1-0.21l0.36-0.32l0.13-0.19c0.05-0.08,0.12-0.13,0.18-0.17l0.3-0.15c0.03-0.19,0.1-0.38,0.18-0.58l-0.04-0.18l0.3-0.13
			l-0.04-0.1c0.08-0.12,0.16-0.21,0.23-0.3h-0.1c0.05-0.08,0.08-0.14,0.08-0.18c0-0.04-0.01-0.09-0.03-0.15
			c-0.02-0.06-0.03-0.1-0.03-0.12c0-0.09,0.02-0.18,0.06-0.29c0.04-0.1,0.06-0.17,0.06-0.19
			C177.98,155.89,177.95,155.85,177.9,155.83z"/>
		<path class="st2" d="M197.16,158.45l-0.11,0.16l-0.14,0.04c0,0.14-0.05,0.24-0.14,0.32s-0.14,0.13-0.14,0.17v0.04l-0.06,0.04
			c-0.04,0.1-0.11,0.18-0.22,0.25s-0.17,0.11-0.2,0.11l-0.18-0.03l-0.02,0.21c-0.12,0.11-0.18,0.16-0.19,0.16s-0.1-0.01-0.27-0.04
			c-0.15,0.09-0.3,0.13-0.46,0.13c-0.11,0-0.34-0.03-0.7-0.09c-0.05-0.07-0.09-0.1-0.14-0.1s-0.11,0.02-0.17,0.06
			c-0.03-0.1-0.14-0.19-0.33-0.29l0.04-0.15c-0.16-0.07-0.24-0.21-0.24-0.42l0.02-0.18l-0.25-0.19l-0.13-0.62l-0.18-0.34v-0.14
			l-0.14-0.67l0.02-0.27l-0.15-0.74l-0.02-0.32l0.04-0.64l-0.08-0.82l-0.28,0.3l-0.44,0.77l-0.18,0.44
			c-0.27,0.19-0.45,0.42-0.52,0.67c-0.14,0-0.21,0.15-0.21,0.46c-0.08,0.09-0.15,0.19-0.21,0.29c-0.06,0.11-0.11,0.19-0.15,0.25
			c-0.04,0.06-0.06,0.1-0.06,0.1v0.05c-0.23,0.21-0.38,0.45-0.44,0.71c-0.03,0.03-0.1,0.13-0.2,0.32c-0.1,0.18-0.28,0.42-0.54,0.72
			c-0.13,0.05-0.24,0.18-0.32,0.38c-0.05,0.13-0.13,0.21-0.22,0.24s-0.14,0.1-0.14,0.21v0.09c-0.11,0-0.32,0.07-0.62,0.21
			c-0.12-0.01-0.21-0.1-0.25-0.25l-0.04-0.3l-0.12-0.25v-0.25l-0.17-0.69c0.01-0.04,0.02-0.09,0.02-0.14c0-0.07-0.03-0.16-0.1-0.28
			l0.08-0.71l-0.08-0.15l0.08-0.34l-0.04-0.18v-0.14l-0.08-0.19l0.14-0.31l-0.1-0.65l0.04-0.18l0.06-0.78l-0.14-0.48l0.04-0.38
			l-0.1-0.3c-0.13-0.32-0.21-0.53-0.24-0.63c-0.03-0.1-0.08-0.15-0.14-0.15c-0.01-0.01-0.04-0.02-0.08-0.02
			c-0.05,0-0.22,0.1-0.52,0.3l-0.3,0.4l-0.26,0.26l-0.56,0.77l-0.04,0.23l-0.34,0.38l-0.14,0.4c-0.08,0.08-0.15,0.19-0.2,0.36
			s-0.11,0.26-0.17,0.28c-0.06,0.02-0.15,0.07-0.26,0.15l-0.02,0.38c-0.06,0.09-0.12,0.2-0.18,0.33c-0.06,0.13-0.14,0.23-0.22,0.32
			c-0.09,0.08-0.15,0.22-0.19,0.43c-0.16,0-0.24,0.1-0.24,0.29c-0.04,0.14-0.12,0.21-0.22,0.21c-0.05,0.14-0.08,0.24-0.08,0.3v0.06
			c-0.17,0.14-0.25,0.23-0.25,0.27c0,0.04,0.02,0.08,0.06,0.13c-0.16,0.07-0.28,0.2-0.37,0.39c-0.09,0.18-0.16,0.3-0.21,0.34v0.09
			c0,0.1-0.03,0.16-0.08,0.2s-0.15,0.13-0.28,0.26s-0.24,0.2-0.33,0.2c-0.1,0-0.18-0.16-0.22-0.48c0.01-0.03,0.02-0.07,0.02-0.12
			c0-0.11-0.05-0.2-0.14-0.28v-0.3c0-0.11,0.03-0.22,0.08-0.33l-0.1-0.46l0.02-0.34l-0.02-0.36v-0.08c0-0.15,0.03-0.26,0.1-0.34
			l0.04-0.16c0-0.05-0.01-0.16-0.03-0.32c-0.02-0.16-0.03-0.25-0.03-0.28v-0.34c0.04-0.14,0.1-0.25,0.18-0.33l-0.16-0.21
			c0.05-0.05,0.07-0.1,0.05-0.15c-0.02-0.05-0.03-0.09-0.03-0.12c0-0.05,0.04-0.13,0.11-0.25s0.12-0.24,0.14-0.36l-0.14-0.4
			l0.06-0.21l-0.12-0.71l0.06-0.29l-0.12-0.57l0.04-0.38l-0.14-0.33c0.14-0.33,0.28-0.49,0.42-0.48l0.08,0.04l0.06,0.29
			c0.18,0.04,0.27,0.15,0.27,0.34l-0.04,0.44c0,0.09,0.06,0.14,0.17,0.16c-0.13,0.2-0.19,0.34-0.19,0.44v0.07l0.11,1.06l-0.05,0.8
			l-0.08,0.23l0.08,0.25l-0.06,0.1l0.09,0.15c-0.1,0.08-0.15,0.16-0.15,0.27l0.04,0.17c0,0.1-0.04,0.18-0.12,0.25l0.08,0.58
			l-0.08,0.21c-0.06,0.15-0.08,0.28-0.06,0.38c0.02,0.1,0.04,0.18,0.04,0.23c0,0.09-0.01,0.15-0.04,0.17
			c0.07,0.14,0.1,0.21,0.1,0.23c0,0.05-0.03,0.13-0.1,0.21l0.2,0.14l0.4-0.52l0.08-0.3c0.08-0.04,0.14-0.1,0.18-0.18
			c0.05-0.08,0.08-0.16,0.1-0.25c0.02-0.09,0.1-0.23,0.25-0.43c0.03,0,0.07-0.03,0.13-0.1s0.13-0.17,0.21-0.3
			c0.08-0.13,0.19-0.26,0.3-0.38c0.02-0.07,0.05-0.14,0.1-0.21s0.09-0.13,0.13-0.18s0.1-0.19,0.17-0.42l0.23-0.42l0.03-0.15
			c0.02-0.05,0.09-0.15,0.2-0.28l0.39-0.41c0.05,0,0.13-0.12,0.25-0.37s0.25-0.43,0.39-0.57c0.14-0.13,0.22-0.25,0.22-0.34
			c0.12-0.02,0.18-0.09,0.18-0.19c0.15-0.06,0.24-0.16,0.26-0.29l0.06,0.02c0.07,0,0.15-0.13,0.23-0.4
			c0.21-0.18,0.35-0.28,0.44-0.28c0.01,0,0.17,0.04,0.5,0.12c0.03,0.05,0.04,0.1,0.04,0.13c0,0.03-0.01,0.07-0.04,0.12l0.14,0.04
			c0,0.07,0.1,0.24,0.3,0.52v0.34l0.18,0.21v0.27c0.16,0.33,0.24,0.61,0.24,0.82l-0.08,0.34l0.08,0.3l-0.19,0.22l0.11,0.65
			c-0.05,0.14-0.07,0.31-0.07,0.5l0.07,0.56l-0.05,0.18l0.05,0.21l-0.07,0.08c0.1,0.44,0.15,0.82,0.15,1.13l-0.04,0.16l-0.09,0.08
			c0.1,0.15,0.15,0.31,0.15,0.48l0.36,0.11l0.96-1.18c0.04-0.04,0.1-0.16,0.19-0.35c0.09-0.19,0.16-0.35,0.23-0.46
			c0.08,0,0.13-0.1,0.16-0.3c0.03-0.2,0.11-0.31,0.24-0.34c0-0.1,0.01-0.18,0.04-0.22s0.15-0.13,0.36-0.27v-0.04
			c0-0.19,0.13-0.39,0.4-0.6c0.06-0.21,0.15-0.41,0.27-0.58c0.19-0.19,0.31-0.34,0.37-0.45l0.21-0.41c0.09-0.16,0.15-0.32,0.19-0.48
			c0.22-0.08,0.41-0.35,0.56-0.82c0.16-0.04,0.26-0.19,0.32-0.44l0.34-0.15l0.29,0.15l-0.1,0.1l0.14,0.14
			c-0.11,0.04-0.16,0.09-0.16,0.15s0.03,0.11,0.1,0.14l-0.14,0.28l-0.12,0.96c0.06,0.03,0.11,0.08,0.14,0.14
			c-0.11,0.16-0.16,0.4-0.16,0.72l0.02,0.38l-0.04,0.14l0.06,0.28c-0.01,0.02-0.04,0.05-0.08,0.09c-0.04,0.04-0.06,0.08-0.06,0.12
			s0.02,0.1,0.07,0.18c0.08,0.03,0.12,0.12,0.12,0.28c0,0.04-0.02,0.08-0.06,0.12c0.03,0.03,0.04,0.07,0.04,0.11
			c0,0.02-0.02,0.06-0.06,0.12c0,0.27,0.06,0.55,0.19,0.85c0.05,0.13,0.11,0.38,0.16,0.75l0.27,0.14l0.1,0.46
			c0.16,0.08,0.25,0.17,0.3,0.28l0.26,0.1l0.31,0.06c0.11,0.03,0.19,0.04,0.24,0.04c0.07,0,0.17-0.02,0.3-0.07s0.22-0.1,0.3-0.15
			c0.07-0.05,0.2-0.12,0.39-0.2c0.12-0.15,0.22-0.32,0.32-0.5l0.28-0.12l0.12-0.21l0.29,0.02
			C197.13,158.32,197.14,158.43,197.16,158.45z"/>
		<path class="st2" d="M205.77,152.38l1.44,0.06l1.38-0.06l0.34,0.02l0.14-0.02h0.76c0.14,0,0.21,0.06,0.21,0.18
			c0,0.14-0.11,0.23-0.34,0.28c-0.04-0.03-0.1-0.04-0.17-0.04c-0.1,0-0.18,0.03-0.27,0.1l-0.3-0.06l-0.56,0.02
			c-0.26,0.14-0.52,0.21-0.78,0.21l-0.4-0.07l-0.21,0.19h-0.19v-0.12l-0.36,0.16h-0.18l-0.06,0.18c-0.12-0.03-0.32-0.06-0.61-0.08
			c-0.02,0.08-0.05,0.12-0.1,0.12c-0.03,0-0.07-0.03-0.12-0.08l-0.3,0.04l-0.21,0.21l-0.06,1.02l0.04,0.61l-0.06,0.79l0.02,0.88
			l0.06,0.42v0.38l0.25,0.52v0.09c0,0.24,0.14,0.47,0.42,0.68l0.06,0.17l0.38,0.08l0.28,0.3l0.78,0.14l1.02-0.23l0.3,0.09l0.73-0.34
			l0.28,0.04c0.09,0.1,0.14,0.18,0.14,0.27c0,0.1-0.09,0.21-0.27,0.34l-0.15-0.06l-0.33,0.28l-0.69,0.08l-0.24,0.14l-0.25-0.14
			c-0.23,0.12-0.48,0.18-0.74,0.18l-0.42-0.08h-0.22l-0.76-0.44l-0.36-0.5l-0.25-0.28l-0.38-1l-0.17-0.94l0.09-0.38l-0.17-0.2
			l0.08-0.24l-0.08-0.38l0.21-0.16l-0.09-0.19l0.05-0.25l-0.09-0.28l0.04-0.4l-0.04-0.2l0.09-0.06v-0.76
			c-0.04-0.18-0.1-0.28-0.17-0.28c-0.05,0-0.09,0.03-0.12,0.08l-0.24-0.1l-0.33,0.08l-0.34-0.25h-0.17c-0.16,0-0.25-0.09-0.25-0.28
			l0.02-0.32l-0.14-0.1l0.08-0.18l0.31,0.04l0.24-0.04l0.34,0.1h0.88l0.04-0.48v-0.48l-0.14-0.36l0.16-0.12
			c0.03-0.08,0.04-0.13,0.04-0.15c0-0.09-0.05-0.16-0.16-0.22l0.04-0.82l-0.17-0.25l0.04-0.18c-0.14-0.03-0.2-0.08-0.2-0.16
			l0.14-0.55c0.12-0.15,0.18-0.25,0.19-0.29c0.42,0.2,0.62,0.32,0.62,0.36v0.02l-0.08,0.2c0.1,0.2,0.14,0.35,0.14,0.46v0.06
			c-0.04,0.11-0.06,0.21-0.06,0.3c0,0.07,0.02,0.12,0.06,0.16l-0.02,0.17l0.02,0.22l-0.18,0.3l0.12,0.52l-0.08,0.63l0.08,0.12
			l-0.12,0.18l0.16,0.52h0.38L205.77,152.38z"/>
		<path class="st2" d="M219.21,160.1c0.01,0.07,0.02,0.16,0.02,0.27c0,0.32-0.15,0.48-0.46,0.48c-0.2,0-0.34-0.17-0.42-0.52
			l-0.14-0.64v-0.19c0.01-0.1,0.02-0.21,0.02-0.35c0-0.16-0.07-0.35-0.21-0.55l0.14-0.34l-0.08-0.5l0.08-0.25v-0.34l0.05-0.3
			l-0.09-0.33l0.09-0.19v-0.78l0.02-1l-0.15-0.66l0.08-0.28l-0.18-0.8v-0.25l-0.34-0.14l-0.38,0.35c-0.05,0.05-0.12,0.09-0.2,0.13
			l-0.36,0.15l-0.58,0.84l-0.24,0.06l-0.52,0.86v0.1h-0.14l-0.06,0.18l-0.23,0.21c-0.08,0.09-0.15,0.22-0.19,0.4l-0.21,0.73
			l-0.32,0.41c-0.04,0.05-0.09,0.16-0.14,0.35l-0.2,0.19l-0.09,0.54l-0.44,0.42l-0.04,0.58h-0.08l-0.14,0.4l-0.34,0.6
			c-0.27,0.3-0.43,0.5-0.48,0.61l-0.1-0.04h-0.13l-0.06-0.11l-0.18-0.71l-0.04-1.15l-0.06-0.34l0.06-0.42l-0.02-0.73l0.1-0.04
			l0.14-1.78l0.06-0.34l-0.02-0.25l0.11-0.06l-0.05-0.14l0.09-0.74l0.1-0.3l-0.06-0.31l0.06-0.15l-0.06-0.12l0.06-0.69l-0.1-0.1
			l0.06-0.14l-0.02-0.8l-0.13-0.36h0.13v-0.18l-0.19-0.86v-0.42l-0.08-0.19l-0.1-0.66c-0.08-0.31-0.19-0.59-0.34-0.86l0.24-0.34
			l-0.04-0.06c0.16,0,0.25,0.09,0.25,0.26l0.3,0.27l0.08,0.25c0.03,0.08,0.11,0.19,0.26,0.35l-0.05,0.18l0.13,0.38l-0.13,0.18
			l0.19,0.15l-0.02,0.54l0.02,1.04l0.12,0.53l-0.08,0.22l0.02,0.4l-0.08,0.34l0.06,0.52l-0.14,0.52l0.08,0.14l-0.04,1.28l0.04,0.19
			l-0.08,0.1l-0.09,0.78l-0.1,0.23l0.08,0.25l-0.04,0.12l-0.04,0.69l-0.21,0.6c0.15,0.18,0.23,0.3,0.23,0.36l-0.16,0.3
			c0.07,0.14,0.1,0.3,0.1,0.5l0.19-0.15l0.08-0.27l0.33-0.67l0.15-0.48c0.22-0.07,0.34-0.21,0.34-0.44c0.04-0.02,0.14-0.19,0.31-0.5
			l0.09-0.27c0.03-0.09,0.09-0.2,0.2-0.34l0.02-0.28l-0.06-0.06l0.14-0.12l0.04,0.06l0.34-0.42c0.11-0.05,0.16-0.14,0.16-0.25v-0.08
			c0.18-0.03,0.28-0.15,0.28-0.38l0.06-0.04v-0.1l0.17-0.04l0.02-0.28h0.14l-0.02-0.16h0.14v-0.13c0.1-0.07,0.15-0.1,0.17-0.1
			c0.01,0,0.02,0.01,0.02,0.04v0.04l0.02-0.18h0.06c0.16,0,0.25-0.13,0.25-0.4l0.26-0.2l0.04,0.08c0.1-0.12,0.17-0.26,0.19-0.42
			l0.14-0.06l0.06-0.17l0.16-0.02c0.06-0.05,0.14-0.09,0.24-0.11c0.09-0.02,0.15-0.03,0.16-0.04l-0.04-0.08
			c0.29-0.16,0.46-0.24,0.52-0.24c0.09,0,0.2,0.09,0.34,0.28c0.1,0.01,0.15,0.07,0.15,0.18l0.18,0.15c0,0.1,0.11,0.33,0.34,0.71
			v1.63l-0.04,0.86l0.08,0.21v1.53l-0.04,0.28v0.52l0.04,0.44l-0.08,0.52c0.05,0.05,0.1,0.26,0.12,0.62l0.2,0.26v0.26L219.21,160.1z
			"/>
		<path class="st2" d="M227.56,158.35c0.1,0.16,0.15,0.27,0.15,0.35c0,0.05-0.06,0.17-0.19,0.35c-0.13,0.18-0.22,0.36-0.29,0.56
			l-0.15,0.02l-0.22,0.44l-0.25,0.04l-0.56,0.38l-0.1,0.22l-0.17-0.02l-0.18,0.21h-0.3l-0.06,0.1l-0.14-0.02
			c-0.15,0-0.28,0.07-0.4,0.21l-0.13-0.1c-0.14,0.07-0.26,0.1-0.35,0.1c-0.16,0-0.28-0.03-0.38-0.1c-0.07,0.01-0.16,0.02-0.28,0.02
			l-0.12-0.1c-0.38-0.02-0.63-0.13-0.76-0.32v-0.26l-0.34-0.18l-0.08-0.21c-0.03-0.07-0.1-0.16-0.23-0.27v-0.16l-0.23-0.99
			l0.04-0.71l0.08-0.4v-0.44l0.11-0.38l-0.04-0.28c0.07-0.06,0.12-0.14,0.14-0.23s0.06-0.2,0.12-0.31c-0.03-0.12-0.05-0.3-0.08-0.52
			l0.18-0.15l-0.18-0.2c0.1-0.16,0.14-0.25,0.14-0.3l-0.1-0.62c0-0.15,0.02-0.3,0.06-0.44c0.08,0.12,0.17,0.18,0.28,0.18
			c0.05,0,0.19-0.03,0.4-0.08c-0.01-0.04-0.02-0.09-0.02-0.14c0-0.1,0.05-0.18,0.16-0.26c0.11-0.34,0.26-0.66,0.46-0.96
			c0.13-0.1,0.19-0.24,0.19-0.42h0.1l0.1-0.2l0.12-0.05c0.03-0.09,0.1-0.19,0.21-0.31c0.16-0.05,0.34-0.21,0.56-0.48
			c0.03,0.01,0.08,0.02,0.17,0.02c0.02,0,0.07-0.08,0.16-0.24c0.24-0.08,0.36-0.12,0.38-0.12c0.06,0,0.12,0.04,0.18,0.12l0.19-0.04
			l0.1,0.08h0.12c0.07,0.22,0.21,0.34,0.42,0.34h0.06c0.02,0.1,0.07,0.17,0.13,0.21l-0.09,0.04c0.24,0.12,0.36,0.38,0.36,0.81
			l-0.06,0.23l0.06,0.58l-0.1,0.09l-0.24,0.62l-0.42,0.52l-0.02,0.3c-0.5,0.41-0.91,0.69-1.23,0.84c-0.03,0.08-0.07,0.12-0.13,0.12
			c-0.03,0-0.08-0.01-0.16-0.04l-0.46,0.32H224l-0.4,0.18l-0.17-0.1c-0.05-0.03-0.19-0.05-0.43-0.08c-0.21,0.2-0.32,0.45-0.32,0.77
			l-0.14,0.17c-0.03,0.26-0.06,0.44-0.1,0.54l-0.11,0.06l0.11,0.76l-0.11,0.1l0.02,0.23l-0.02,0.29c0,0.05,0.02,0.18,0.05,0.39
			s0.09,0.33,0.16,0.37c-0.03,0.1,0.03,0.21,0.2,0.35c0.17,0.14,0.35,0.23,0.54,0.29v0.12l0.54,0.08l0.78,0.04l0.52-0.06
			c0.21-0.15,0.36-0.24,0.46-0.28l0.16-0.25h0.19l0.02-0.1c0.3-0.1,0.46-0.17,0.5-0.21c0.03-0.04,0.05-0.07,0.05-0.11
			c0.04-0.08,0.1-0.12,0.18-0.12l0.06-0.13c0.31-0.05,0.5-0.25,0.57-0.6C227.38,158.37,227.46,158.35,227.56,158.35z M225.84,153.57
			c0.05-0.01,0.15-0.09,0.28-0.26l0.06-0.25c0.17-0.29,0.27-0.47,0.3-0.55s0.04-0.18,0.04-0.29c0-0.12-0.05-0.32-0.14-0.61
			l-0.42-0.14c-0.11,0.03-0.18,0.04-0.21,0.04l-0.12-0.04c-0.1,0-0.17,0.06-0.21,0.18c-0.12,0-0.31,0.05-0.56,0.15l-0.06,0.14
			c-0.03-0.01-0.05-0.02-0.08-0.02c-0.02,0-0.04,0-0.06,0.01c-0.02,0.01-0.03,0.02-0.05,0.03c-0.01,0.01-0.03,0.03-0.04,0.05
			c-0.01,0.02-0.03,0.04-0.04,0.07c-0.01,0.03-0.02,0.06-0.03,0.09c-0.01,0.03-0.02,0.06-0.03,0.09c-0.01,0.03-0.05,0.09-0.13,0.18
			l-0.15,0.18l-0.3,0.56l-0.15,0.13c-0.05,0.04-0.08,0.13-0.11,0.27c-0.03,0.14-0.21,0.46-0.55,0.98l0.14,0.08l0.07,0.17l0.35,0.1
			c0.2-0.14,0.41-0.23,0.63-0.28l0.06-0.12c0.08,0.03,0.13,0.04,0.16,0.04c0.07,0,0.13-0.04,0.19-0.12l0.25-0.04l0.15-0.26h0.14
			l0.1-0.22c0.18,0,0.36-0.08,0.52-0.26V153.57z"/>
		<path class="st2" d="M242.1,157.07l-0.14,0.18l0.04,0.5l-0.44,0.61v0.25l-0.28,0.32l0.11,0.18c-0.14,0.13-0.28,0.35-0.44,0.65
			l-0.42,0.26c-0.07,0.11-0.16,0.17-0.27,0.19c-0.11,0.02-0.22,0.04-0.32,0.07l-0.04,0.12l-0.06-0.08l-0.18,0.08l-0.13-0.08
			c-0.08,0-0.18,0.03-0.29,0.1l0.04,0.09l-0.3-0.04l-0.08,0.1l-0.14-0.1l-0.38,0.2l-0.19-0.2l-0.42,0.04l-0.35-0.1
			c-0.25-0.07-0.43-0.17-0.53-0.32l-0.25-0.08l-0.13-0.4c-0.01-0.1-0.11-0.17-0.29-0.21l-0.19,0.08l-0.29-0.12l-0.32-0.72l0.06-0.16
			l-0.12-0.24v-0.39l-0.08-0.17l0.08-0.34l-0.15-0.18l0.07-0.24v-0.66l0.08-0.21l0.04-1.34l0.08-0.52l-0.08-0.08l0.14-0.48
			l-0.06-0.3v-0.29l0.1-0.15c-0.03-0.4-0.06-0.62-0.1-0.66l0.19-0.67l-0.13-0.71l0.13-0.08l-0.09-0.25v-0.38l-0.04-0.63l0.06-0.18
			l-0.08-0.38l0.08-0.04c-0.07-0.03-0.1-0.07-0.1-0.12c0-0.02,0.02-0.06,0.05-0.12c0.03-0.06,0.05-0.12,0.05-0.18v-0.06l-0.08-0.19
			c0.03-0.11,0.04-0.2,0.04-0.27c0-0.15-0.05-0.3-0.16-0.46c0-0.1,0.04-0.15,0.12-0.15l-0.12-0.31l0.08-0.26l-0.16-0.42l0.23-0.02
			l-0.02-0.18l0.15-0.08c0.05,0.06,0.1,0.18,0.14,0.37l0.2,0.17l-0.14,0.12l0.28,0.34l-0.13,0.18l-0.14,0.04
			c0.11,0.12,0.16,0.18,0.16,0.19c0,0.05-0.03,0.08-0.08,0.1l0.1,0.14l-0.1,0.09l0.19,0.14c-0.06,0.05-0.09,0.12-0.09,0.2l0.19,0.42
			l-0.08,0.24l0.08,0.06l-0.1,0.04c0.07,0.1,0.1,0.17,0.1,0.21c0,0.06-0.06,0.14-0.17,0.22l0.21,0.04
			c-0.03,0.17-0.06,0.32-0.07,0.44s-0.07,0.26-0.16,0.42c0.1,0.04,0.15,0.17,0.15,0.38l-0.06,0.26l0.06,0.18l-0.19,0.86l0.19,0.28
			l-0.19,0.35l0.06,0.32l-0.06,0.21l0.13,0.18l-0.19,0.19l0.06,0.14l-0.02,0.18l0.02,0.11l-0.06,0.18l0.1,0.18l-0.1,0.15l0.1,0.2
			l-0.1,0.08c0.04,0.11,0.06,0.19,0.06,0.25c0,0.09-0.05,0.17-0.14,0.26l0.12,0.1l-0.04,0.32v0.83c0.12,0.12,0.18,0.17,0.19,0.17
			c0.1,0,0.14-0.11,0.14-0.32v-0.08c0.06-0.05,0.13-0.13,0.21-0.25c0.08-0.12,0.12-0.18,0.12-0.19v-0.14l0.1-0.11
			c0.02-0.27,0.08-0.47,0.16-0.58l-0.02-0.4l0.13-0.02l0.02-0.12l0.06,0.04l0.06-0.3l0.14-0.29v-0.13l0.13-0.25l-0.03-0.19
			l0.19-0.27l0.14-0.07v-0.14c0.11-0.06,0.17-0.17,0.19-0.34l0.23-0.27l0.1,0.04v-0.1l0.11-0.09c0.01-0.12,0.1-0.3,0.27-0.52
			c-0.05-0.03-0.08-0.07-0.08-0.1c0-0.04,0.03-0.07,0.1-0.08l0.04-0.1c0.07-0.01,0.19-0.08,0.38-0.21l0.11-0.32h0.12l-0.04-0.1
			c0.13-0.09,0.32-0.14,0.58-0.14l-0.16-0.04l0.2-0.11h0.08l-0.08-0.08l0.12-0.04l-0.04-0.06h0.21l-0.02,0.06l0.52,0.08l0.11,0.2
			c0.03,0.06,0.07,0.25,0.1,0.55l0.18,0.02l0.04,0.3l0.18,0.16v0.26l0.07,0.1l-0.02,0.18l0.25,0.13l0.04,0.4v0.08
			c0,0.14,0.09,0.35,0.26,0.62c-0.05,0.14-0.1,0.22-0.15,0.26c0.07,0.08,0.13,0.12,0.19,0.12c0.05,0,0.1-0.01,0.14-0.04
			c0,0.16-0.06,0.28-0.18,0.34l0.12,0.86c0.04,0.02,0.06,0.05,0.06,0.1l-0.04,0.18l-0.02,1.11l0.06,0.18l-0.06,0.34L242.1,157.07z
			 M241.62,155.53l-0.06-0.46v-0.36l-0.16-1.08l-0.19-0.78l-0.29-0.71l-0.49-0.81c-0.03-0.08-0.08-0.15-0.16-0.24l-0.32,0.08
			l-0.14-0.04l-0.14,0.19l-0.28,0.06v0.27c0,0.03-0.05,0.05-0.16,0.07c-0.11,0.02-0.19,0.12-0.24,0.31
			c-0.17,0.15-0.28,0.27-0.33,0.37c-0.05,0.09-0.13,0.2-0.23,0.31h-0.1l-0.13,0.48l-0.16,0.25l-0.28,0.67
			c0,0.21-0.04,0.38-0.12,0.52s-0.17,0.3-0.28,0.48l0.02,0.34l-0.29,0.42l-0.17,0.7l-0.2,0.16c0.01,0.01,0.02,0.03,0.02,0.04
			c0,0.03-0.01,0.05-0.02,0.06c0.03,0.07,0.04,0.18,0.04,0.34c0,0.2-0.03,0.36-0.1,0.5l-0.15,0.06l0.09,0.34l-0.17,0.06l0.02,0.21
			l-0.06,0.16c-0.12,0.08-0.18,0.16-0.18,0.24c0,0.07,0.04,0.1,0.12,0.1c-0.05,0.05-0.08,0.1-0.08,0.14c0,0.03,0.03,0.08,0.08,0.12
			l0.44-0.18l0.3,0.02c0,0.04,0.01,0.06,0.04,0.06h0.02c0.16,0,0.25,0.06,0.27,0.17l0.04-0.11l0.03,0.17
			c0.15,0.03,0.25,0.06,0.31,0.1v0.28c0.1,0.04,0.21,0.13,0.34,0.27h0.71l0.58-0.14l0.04-0.12l0.12,0.08l0.17-0.13
			c0.05-0.04,0.21-0.09,0.46-0.16l-0.04-0.12h0.18v-0.1h0.06c0.1,0,0.17-0.08,0.21-0.25s0.08-0.26,0.1-0.28l0.58-0.64v-0.28
			l0.24-0.48v-0.58l0.06-0.61l-0.02-0.29L241.62,155.53z"/>
		<path class="st2" d="M250.13,158.35c0.1,0.16,0.15,0.27,0.15,0.35c0,0.05-0.06,0.17-0.19,0.35c-0.13,0.18-0.22,0.36-0.29,0.56
			l-0.15,0.02l-0.22,0.44l-0.25,0.04l-0.56,0.38l-0.1,0.22l-0.17-0.02l-0.18,0.21h-0.3l-0.06,0.1l-0.14-0.02
			c-0.15,0-0.28,0.07-0.4,0.21l-0.13-0.1c-0.14,0.07-0.26,0.1-0.35,0.1c-0.16,0-0.28-0.03-0.38-0.1c-0.07,0.01-0.16,0.02-0.28,0.02
			L246,161c-0.38-0.02-0.63-0.13-0.76-0.32v-0.26l-0.34-0.18l-0.08-0.21c-0.03-0.07-0.1-0.16-0.23-0.27v-0.16l-0.23-0.99l0.04-0.71
			l0.08-0.4v-0.44l0.11-0.38l-0.04-0.28c0.07-0.06,0.12-0.14,0.14-0.23s0.06-0.2,0.12-0.31c-0.03-0.12-0.05-0.3-0.08-0.52l0.18-0.15
			l-0.18-0.2c0.1-0.16,0.14-0.25,0.14-0.3l-0.1-0.62c0-0.15,0.02-0.3,0.06-0.44c0.08,0.12,0.17,0.18,0.28,0.18
			c0.05,0,0.19-0.03,0.4-0.08c-0.01-0.04-0.02-0.09-0.02-0.14c0-0.1,0.05-0.18,0.16-0.26c0.11-0.34,0.26-0.66,0.46-0.96
			c0.13-0.1,0.19-0.24,0.19-0.42h0.1l0.1-0.2l0.12-0.05c0.03-0.09,0.1-0.19,0.21-0.31c0.16-0.05,0.34-0.21,0.56-0.48
			c0.03,0.01,0.08,0.02,0.17,0.02c0.02,0,0.07-0.08,0.16-0.24c0.24-0.08,0.36-0.12,0.38-0.12c0.06,0,0.12,0.04,0.18,0.12l0.19-0.04
			l0.1,0.08h0.12c0.07,0.22,0.21,0.34,0.42,0.34h0.06c0.02,0.1,0.07,0.17,0.13,0.21l-0.09,0.04c0.24,0.12,0.36,0.38,0.36,0.81
			l-0.06,0.23l0.06,0.58l-0.1,0.09l-0.24,0.62l-0.42,0.52l-0.02,0.3c-0.5,0.41-0.91,0.69-1.23,0.84c-0.03,0.08-0.07,0.12-0.13,0.12
			c-0.03,0-0.08-0.01-0.16-0.04l-0.46,0.32h-0.28l-0.4,0.18l-0.17-0.1c-0.05-0.03-0.19-0.05-0.43-0.08
			c-0.21,0.2-0.32,0.45-0.32,0.77l-0.14,0.17c-0.03,0.26-0.06,0.44-0.1,0.54l-0.11,0.06l0.11,0.76l-0.11,0.1l0.02,0.23l-0.02,0.29
			c0,0.05,0.02,0.18,0.05,0.39s0.09,0.33,0.16,0.37c-0.03,0.1,0.03,0.21,0.2,0.35c0.17,0.14,0.35,0.23,0.54,0.29v0.12l0.54,0.08
			l0.78,0.04l0.52-0.06c0.21-0.15,0.36-0.24,0.46-0.28l0.16-0.25h0.19l0.02-0.1c0.3-0.1,0.46-0.17,0.5-0.21
			c0.03-0.04,0.05-0.07,0.05-0.11c0.04-0.08,0.1-0.12,0.18-0.12l0.06-0.13c0.31-0.05,0.5-0.25,0.57-0.6
			C249.96,158.37,250.04,158.35,250.13,158.35z M248.42,153.57c0.05-0.01,0.15-0.09,0.28-0.26l0.06-0.25
			c0.17-0.29,0.27-0.47,0.3-0.55s0.04-0.18,0.04-0.29c0-0.12-0.05-0.32-0.14-0.61l-0.42-0.14c-0.11,0.03-0.18,0.04-0.21,0.04
			l-0.12-0.04c-0.1,0-0.17,0.06-0.21,0.18c-0.12,0-0.31,0.05-0.56,0.15l-0.06,0.14c-0.03-0.01-0.05-0.02-0.08-0.02
			c-0.02,0-0.04,0-0.06,0.01c-0.02,0.01-0.03,0.02-0.05,0.03c-0.01,0.01-0.03,0.03-0.04,0.05c-0.01,0.02-0.03,0.04-0.04,0.07
			c-0.01,0.03-0.02,0.06-0.03,0.09c-0.01,0.03-0.02,0.06-0.03,0.09c-0.01,0.03-0.05,0.09-0.13,0.18l-0.15,0.18l-0.3,0.56l-0.15,0.13
			c-0.05,0.04-0.08,0.13-0.11,0.27c-0.03,0.14-0.21,0.46-0.55,0.98l0.14,0.08l0.07,0.17l0.35,0.1c0.2-0.14,0.41-0.23,0.63-0.28
			l0.06-0.12c0.08,0.03,0.13,0.04,0.16,0.04c0.07,0,0.13-0.04,0.19-0.12l0.25-0.04l0.15-0.26h0.14l0.1-0.22
			c0.18,0,0.36-0.08,0.52-0.26V153.57z"/>
		<path class="st2" d="M259.04,158.61l-0.14,0.16c-0.03,0.05-0.13,0.26-0.28,0.63l-0.3,0.21l0.02,0.12h-0.28l-0.27,0.3h-0.36
			l-0.24,0.12c-0.07,0-0.14,0.04-0.22,0.12c-0.09-0.04-0.18-0.06-0.28-0.06c-0.07,0-0.16,0.02-0.27,0.06v0.12l-0.38-0.04l-0.3,0.04
			l-0.28-0.04l-0.04,0.06l-0.1-0.06l-0.18,0.06h-0.13c-0.09,0-0.2,0.02-0.31,0.05l-0.21-0.07l-0.16,0.11l-0.08-0.09l-0.15,0.09
			c-0.18-0.1-0.32-0.15-0.44-0.15c-0.04,0-0.1,0.02-0.18,0.06c-0.09-0.05-0.21-0.08-0.36-0.09l-0.46-0.05
			c-0.14,0-0.26,0.01-0.34,0.04l-0.04-0.08l-0.18,0.12c-0.04-0.05-0.09-0.08-0.15-0.08l-0.06-0.12c-0.43-0.02-0.64-0.33-0.64-0.92
			l0.44-0.06l-0.02-0.15l0.1-0.14l0.06,0.12h0.12v0.1l0.19-0.1c0.11,0.02,0.16,0.07,0.16,0.15c0,0.04-0.02,0.1-0.06,0.18l0.18,0.02
			v0.32l0.53,0.08l0.2,0.18l0.06-0.1l2.68-0.16l0.92-0.17l0.05-0.1l0.23-0.04l0.06-0.08c0.32-0.06,0.6-0.17,0.84-0.34l0.06,0.06
			l0.04-0.12l0.15-0.12l0.02-0.07l-0.1-0.14l0.04-0.18l-0.23-0.19l-0.04-0.16c-0.11-0.04-0.18-0.08-0.21-0.12l-0.09,0.04l-0.2-0.19
			h-0.08l-0.09-0.12h-0.2c-0.04-0.11-0.12-0.16-0.24-0.16l-0.14,0.02c-0.23,0-0.44-0.07-0.62-0.21h-0.21l-0.27-0.16l-0.13,0.08
			l-0.06-0.1h-0.14l-0.24-0.19l-0.62-0.27l-0.24-0.21l-0.71-0.12l-0.02-0.06l-0.59-0.42l-0.27-0.67l-0.21-0.33l-0.06-0.97l0.06-0.1
			c0-0.27,0.07-0.51,0.21-0.71c0.26-0.15,0.39-0.3,0.4-0.44l0.14,0.02c0.05-0.17,0.18-0.34,0.39-0.5l0.25-0.22l1.22-0.52l0.61-0.11
			l0.6-0.18l0.94,0.06l0.04,0.12h0.06c0.12,0,0.21,0.04,0.28,0.11v0.18l0.25,0.18c-0.08,0.33-0.11,0.51-0.11,0.55
			c0,0.12-0.06,0.18-0.18,0.18c-0.05,0-0.15-0.15-0.3-0.44l-0.56-0.04l-0.14,0.04c-0.22-0.16-0.34-0.25-0.38-0.25
			c-0.04,0-0.06,0.02-0.06,0.06l-0.19,0.14c-0.23,0-0.42,0.06-0.56,0.18c-0.26,0.05-0.44,0.13-0.54,0.25h-0.23l-0.17,0.13
			c-0.05,0.03-0.18,0.08-0.41,0.14l-0.08,0.1l-0.11,0.06l-0.29,0.28l-0.19,0.31c-0.2,0.13-0.3,0.21-0.31,0.25l-0.21,0.86l0.1,0.06
			v0.06c0,0.23,0.11,0.43,0.34,0.59v0.1l0.56,0.34h0.13l0.31,0.31h0.42l0.26,0.21l0.48,0.06l0.14,0.12l0.9,0.28
			c0,0.08,0.05,0.12,0.15,0.12c0.17,0,0.33,0.04,0.47,0.12c0.14,0.08,0.28,0.13,0.41,0.15l0.02,0.1l0.18,0.1h0.4l0.36,0.23
			c0.04,0.15,0.13,0.28,0.28,0.38l-0.02,0.06l0.1,0.14l0.18,0.04l-0.08,0.15C258.93,158.39,259.01,158.5,259.04,158.61z"/>
		<path class="st2" d="M262.99,152.38l1.44,0.06l1.38-0.06l0.34,0.02l0.14-0.02h0.76c0.14,0,0.21,0.06,0.21,0.18
			c0,0.14-0.11,0.23-0.34,0.28c-0.04-0.03-0.1-0.04-0.17-0.04c-0.1,0-0.18,0.03-0.27,0.1l-0.3-0.06l-0.56,0.02
			c-0.26,0.14-0.52,0.21-0.78,0.21l-0.4-0.07l-0.21,0.19h-0.19v-0.12l-0.36,0.16h-0.18l-0.06,0.18c-0.12-0.03-0.32-0.06-0.61-0.08
			c-0.02,0.08-0.05,0.12-0.1,0.12c-0.03,0-0.07-0.03-0.12-0.08l-0.3,0.04l-0.21,0.21l-0.06,1.02l0.04,0.61l-0.06,0.79l0.02,0.88
			l0.06,0.42v0.38l0.25,0.52v0.09c0,0.24,0.14,0.47,0.42,0.68l0.06,0.17l0.38,0.08l0.28,0.3l0.78,0.14l1.02-0.23l0.3,0.09l0.73-0.34
			l0.28,0.04c0.09,0.1,0.14,0.18,0.14,0.27c0,0.1-0.09,0.21-0.27,0.34l-0.15-0.06l-0.33,0.28l-0.69,0.08l-0.24,0.14l-0.25-0.14
			c-0.23,0.12-0.48,0.18-0.74,0.18l-0.42-0.08h-0.22l-0.76-0.44l-0.36-0.5l-0.25-0.28l-0.38-1l-0.17-0.94l0.09-0.38l-0.17-0.2
			l0.08-0.24l-0.08-0.38l0.21-0.16l-0.09-0.19l0.05-0.25l-0.09-0.28l0.04-0.4l-0.04-0.2l0.09-0.06v-0.76
			c-0.04-0.18-0.1-0.28-0.17-0.28c-0.05,0-0.09,0.03-0.12,0.08l-0.24-0.1l-0.33,0.08l-0.34-0.25h-0.17c-0.16,0-0.25-0.09-0.25-0.28
			l0.02-0.32l-0.14-0.1l0.08-0.18l0.31,0.04l0.24-0.04l0.34,0.1h0.88l0.04-0.48v-0.48l-0.14-0.36l0.16-0.12
			c0.03-0.08,0.04-0.13,0.04-0.15c0-0.09-0.05-0.16-0.16-0.22l0.04-0.82l-0.17-0.25l0.04-0.18c-0.14-0.03-0.2-0.08-0.2-0.16
			l0.14-0.55c0.12-0.15,0.18-0.25,0.19-0.29c0.42,0.2,0.62,0.32,0.62,0.36v0.02l-0.08,0.2c0.1,0.2,0.14,0.35,0.14,0.46v0.06
			c-0.04,0.11-0.06,0.21-0.06,0.3c0,0.07,0.02,0.12,0.06,0.16l-0.02,0.17l0.02,0.22l-0.18,0.3l0.12,0.52l-0.08,0.63l0.08,0.12
			l-0.12,0.18l0.16,0.52h0.38L262.99,152.38z"/>
		<path class="st2" d="M270.92,149.2l-0.08,0.14c-0.01,0.1-0.06,0.19-0.14,0.3l0.14,0.56l-0.1,0.18l0.08,0.09l-0.04,0.16l0.06,0.12
			c-0.12,0.02-0.18,0.08-0.18,0.19c0,0.03,0.03,0.16,0.08,0.4l-0.1,0.29l0.14,0.19c-0.09,0.16-0.14,0.32-0.14,0.48l-0.09,1.94
			l0.11,0.19l-0.11,0.48l0.11,0.44l-0.11,0.27l0.11,0.21l-0.02,0.22l0.02,0.15l-0.11,0.04c0.06,0.13,0.09,0.26,0.09,0.38
			c0,0.11-0.07,0.17-0.19,0.18c0.09,0.1,0.14,0.19,0.14,0.25c0,0.12-0.06,0.18-0.18,0.18c-0.12,0-0.18-0.15-0.18-0.44v-0.46
			c-0.05-0.43-0.11-0.72-0.15-0.88l0.1-0.27l-0.1-0.3l0.1-0.76l-0.18-0.1l0.08-0.25l-0.04-0.27v-0.19l0.08-0.04l-0.12-0.3l0.04-0.14
			v-0.04c0-0.09,0.04-0.2,0.12-0.34l-0.08-0.18v-0.3l-0.08-0.04l0.16-0.16l-0.12-0.34l0.08-0.32l-0.14-0.18l0.14-0.17l-0.04-0.31
			l0.04-0.21c-0.04-0.06-0.06-0.12-0.06-0.16c0-0.04,0.02-0.11,0.06-0.21l-0.12-0.04v-0.44l-0.16-0.18l0.02-0.42l0.23,0.04l0.3-0.08
			l0.46,0.16L270.92,149.2z M271.24,160.1l-0.26,0.21l-0.29-0.08l-0.25,0.1l-0.21-0.1h-0.21l-0.12-0.46l0.08-0.32l0.16-0.16h0.05
			c0.02,0,0.05-0.02,0.09-0.07c0.04-0.04,0.07-0.08,0.1-0.11c0.21,0.09,0.34,0.13,0.38,0.13h0.02c0-0.01-0.02-0.04-0.06-0.08h0.04
			c0.03,0,0.11,0.03,0.25,0.1c0.11,0.16,0.19,0.33,0.24,0.5c-0.04,0.02-0.06,0.05-0.06,0.1C271.18,159.92,271.2,160,271.24,160.1z"
			/>
	</g>
</g>
</svg>
