<svg width="19" height="17" viewBox="0 0 19 17" fill="none" xmlns="http://www.w3.org/2000/svg">
<path d="M3.81975 16.4166L5.66038 10.3999L0.791626 6.91658H6.80829L8.70829 0.583252L10.6083 6.91658H16.625L11.7562 10.3999L13.5968 16.4166L8.70829 12.6958L3.81975 16.4166ZM5.99683 13.1905L8.70829 11.1322L11.4198 13.1905L10.3312 9.76659L12.825 8.14367H9.83642L8.70829 4.71971L7.58017 8.14367H4.59163L7.08538 9.76659L5.99683 13.1905ZM16.5062 16.4166L14.8635 15.1499L13.5968 11.0333L16.6447 8.85617H18.6833L14.9822 11.5083L16.5062 16.4166ZM11.7958 5.33325L11.202 3.3145L12.0135 0.583252L13.4583 5.33325H11.7958Z" fill="#EDBB07"/>
</svg>
